0
SECTION
2
HEADER
9
$INSUNITS
70
4
9
$ACADVER
1
AC1014
9
$HANDSEED
5
FFFF
0
ENDSEC
0
SECTION
2
TABLES
0
TABLE
2
VPORT
5
8
100
AcDbSymbolTable
0
ENDTAB
0
TABLE
2
LTYPE
5
5
100
AcDbSymbolTable
0
LTYPE
5
14
100
AcDbSymbolTableRecord
100
AcDbLinetypeTableRecord
2
BYBLOCK
70
0
0
LTYPE
5
15
100
AcDbSymbolTableRecord
100
AcDbLinetypeTableRecord
2
BYLAYER
70
0
0
ENDTAB
0
TABLE
2
LAYER
5
2
100
AcDbSymbolTable
70
2
0
LAYER
5
50
100
AcDbSymbolTableRecord
100
AcDbLayerTableRecord
2
0
70
0
6
CONTINUOUS
0
ENDTAB
0
TABLE
2
STYLE
5
3
100
AcDbSymbolTable
70
1
0
STYLE
5
11
100
AcDbSymbolTableRecord
100
AcDbTextStyleTableRecord
2
STANDARD
70
0
0
ENDTAB
0
TABLE
2
VIEW
5
6
100
AcDbSymbolTable
70
0
0
ENDTAB
0
TABLE
2
UCS
5
7
100
AcDbSymbolTable
70
0
0
ENDTAB
0
TABLE
2
APPID
5
9
100
AcDbSymbolTable
70
2
0
APPID
5
12
100
AcDbSymbolTableRecord
100
AcDbRegAppTableRecord
2
ACAD
70
0
0
ENDTAB
0
TABLE
2
DIMSTYLE
5
A
100
AcDbSymbolTable
70
1
0
ENDTAB
0
TABLE
2
BLOCK_RECORD
5
1
100
AcDbSymbolTable
70
1
0
BLOCK_RECORD
5
1F
100
AcDbSymbolTableRecord
100
AcDbBlockTableRecord
2
*MODEL_SPACE
0
BLOCK_RECORD
5
1B
100
AcDbSymbolTableRecord
100
AcDbBlockTableRecord
2
*PAPER_SPACE
0
ENDTAB
0
ENDSEC
0
SECTION
2
BLOCKS
0
BLOCK
5
20
100
AcDbEntity
100
AcDbBlockBegin
2
*MODEL_SPACE
0
ENDBLK
5
21
100
AcDbEntity
100
AcDbBlockEnd
0
BLOCK
5
1C
100
AcDbEntity
100
AcDbBlockBegin
2
*PAPER_SPACE
0
ENDBLK
5
1D
100
AcDbEntity
100
AcDbBlockEnd
0
ENDSEC
0
SECTION
2
ENTITIES
0
SPLINE
5
100
100
AcDbEntity
8
0
100
AcDbSpline
70
4
71
3
72
8
73
4
74
0
42
0.000000001
43
0.0000000001
44
0.0000000001
40
0
40
0
40
0
40
0
40
1
40
1
40
1
40
1
41
1
41
1
41
1
41
1
10
23.253799382191755
20
36.641845929524195
30
0
10
24.214783239346602
20
36.206842957636603
30
0
10
24.699640998822311
20
35.536130899330864
30
0
10
24.91611906431303
20
34.342336216351285
30
0
0
SPLINE
5
101
100
AcDbEntity
8
0
100
AcDbSpline
70
4
71
3
72
8
73
4
74
0
42
0.000000001
43
0.0000000001
44
0.0000000001
40
0
40
0
40
0
40
0
40
1
40
1
40
1
40
1
41
1
41
1
41
1
41
1
10
24.91611906431303
20
34.342336216351285
30
0
10
25.258322377186872
20
32.455195636770021
30
0
10
24.397667425137616
20
30.66966299941231
30
0
10
22.941830052357769
20
30.246439695498239
30
0
0
SPLINE
5
102
100
AcDbEntity
8
0
100
AcDbSpline
70
4
71
3
72
8
73
4
74
0
42
0.000000001
43
0.0000000001
44
0.0000000001
40
0
40
0
40
0
40
0
40
1
40
1
40
1
40
1
41
1
41
1
41
1
41
1
10
22.941830052357769
20
30.246439695498239
30
0
10
21.868176473599533
20
29.934320262408146
30
0
10
20.58808128069029
20
30.209814461266888
30
0
10
19.954729314786054
20
30.889304956993353
30
0
0
SPLINE
5
103
100
AcDbEntity
8
0
100
AcDbSpline
70
4
71
3
72
8
73
4
74
0
42
0.000000001
43
0.0000000001
44
0.0000000001
40
0
40
0
40
0
40
0
40
1
40
1
40
1
40
1
41
1
41
1
41
1
41
1
10
19.954729314786054
20
30.889304956993353
30
0
10
19.633272918683147
20
31.234179368635907
30
0
10
19.25879577634916
20
32.073453131219637
30
0
10
19.255741093617537
20
32.455869332930341
30
0
0
SPLINE
5
104
100
AcDbEntity
8
0
100
AcDbSpline
70
4
71
3
72
8
73
4
74
0
42
0.000000001
43
0.0000000001
44
0.0000000001
40
0
40
0
40
0
40
0
40
1
40
1
40
1
40
1
41
1
41
1
41
1
41
1
10
19.255741093617537
20
32.455869332930341
30
0
10
19.253574074727151
20
32.726864010831605
30
0
10
19.294190418225384
20
32.761572557231673
30
0
10
19.614456480008222
20
32.762429063817756
30
0
0
SPLINE
5
105
100
AcDbEntity
8
0
100
AcDbSpline
70
4
71
3
72
8
73
4
74
0
42
0.000000001
43
0.0000000001
44
0.0000000001
40
0
40
0
40
0
40
0
40
1
40
1
40
1
40
1
41
1
41
1
41
1
41
1
10
19.614456480008222
20
32.762429063817756
30
0
10
19.81309224794493
20
32.762962552329789
30
0
10
20.238145881634807
20
32.794928942343489
30
0
10
20.559019827824692
20
32.833470149060979
30
0
0
LINE
5
106
100
AcDbEntity
8
0
100
AcDbLine
10
20.559019827824695
20
32.833470149060979
30
0
11
21.142426077824691
21
32.903545359393846
31
0
0
LINE
5
107
100
AcDbEntity
8
0
100
AcDbLine
10
21.142426077824691
20
32.903545359393846
30
0
11
21.142426077824691
21
32.569677884003411
31
0
0
SPLINE
5
108
100
AcDbEntity
8
0
100
AcDbSpline
70
4
71
3
72
8
73
4
74
0
42
0.000000001
43
0.0000000001
44
0.0000000001
40
0
40
0
40
0
40
0
40
1
40
1
40
1
40
1
41
1
41
1
41
1
41
1
10
21.142426077824691
20
32.569677884003411
30
0
10
21.142426077824691
20
32.127881676694642
30
0
10
21.525657772999864
20
31.650212976953277
30
0
10
21.880110338193038
20
31.650212976953277
30
0
0
SPLINE
5
109
100
AcDbEntity
8
0
100
AcDbSpline
70
4
71
3
72
8
73
4
74
0
42
0.000000001
43
0.0000000001
44
0.0000000001
40
0
40
0
40
0
40
0
40
1
40
1
40
1
40
1
41
1
41
1
41
1
41
1
10
21.880110338193038
20
31.650212976953277
30
0
10
22.29319704244719
20
31.650212976953277
30
0
10
22.538965471249675
20
31.821862905701884
30
0
10
22.709351146679975
20
32.22937230231453
30
0
0
SPLINE
5
110
100
AcDbEntity
8
0
100
AcDbSpline
70
4
71
3
72
8
73
4
74
0
42
0.000000001
43
0.0000000001
44
0.0000000001
40
0
40
0
40
0
40
0
40
1
40
1
40
1
40
1
41
1
41
1
41
1
41
1
10
22.709351146679975
20
32.22937230231453
30
0
10
22.906435410481549
20
32.700743262371311
30
0
10
22.912280257207016
20
34.371611318966643
30
0
10
22.718451608639818
20
34.830640985628854
30
0
0
SPLINE
5
111
100
AcDbEntity
8
0
100
AcDbSpline
70
4
71
3
72
8
73
4
74
0
42
0.000000001
43
0.0000000001
44
0.0000000001
40
0
40
0
40
0
40
0
40
1
40
1
40
1
40
1
41
1
41
1
41
1
41
1
10
22.718451608639818
20
34.830640985628854
30
0
10
22.576817085248095
20
35.166048837563288
30
0
10
22.197568431836228
20
35.428462235113869
30
0
10
21.854459650975326
20
35.428462235113869
30
0
0
SPLINE
5
112
100
AcDbEntity
8
0
100
AcDbSpline
70
4
71
3
72
8
73
4
74
0
42
0.000000001
43
0.0000000001
44
0.0000000001
40
0
40
0
40
0
40
0
40
1
40
1
40
1
40
1
41
1
41
1
41
1
41
1
10
21.854459650975326
20
35.428462235113869
30
0
10
21.588806534749128
20
35.428462235113869
30
0
10
21.142428621274089
20
34.909139782449493
30
0
10
21.142428621274089
20
34.600076025625953
30
0
0
SPLINE
5
113
100
AcDbEntity
8
0
100
AcDbSpline
70
4
71
3
72
8
73
4
74
0
42
0.000000001
43
0.0000000001
44
0.0000000001
40
0
40
0
40
0
40
0
40
1
40
1
40
1
40
1
41
1
41
1
41
1
41
1
10
21.142428621274089
20
34.600076025625953
30
0
10
21.142428621274089
20
34.332091838022961
30
0
10
21.111009390812971
20
34.317212341090929
30
0
10
20.54513259409056
20
34.317212341090929
30
0
0
SPLINE
5
114
100
AcDbEntity
8
0
100
AcDbSpline
70
4
71
3
72
8
73
4
74
0
42
0.000000001
43
0.0000000001
44
0.0000000001
40
0
40
0
40
0
40
0
40
1
40
1
40
1
40
1
41
1
41
1
41
1
41
1
10
20.54513259409056
20
34.317212341090929
30
0
10
19.598000362378215
20
34.317212341090929
30
0
10
19.252907690983871
20
34.417590843459855
30
0
10
19.255743637066942
20
34.692259216090932
30
0
0
SPLINE
5
115
100
AcDbEntity
8
0
100
AcDbSpline
70
4
71
3
72
8
73
4
74
0
42
0.000000001
43
0.0000000001
44
0.0000000001
40
0
40
0
40
0
40
0
40
1
40
1
40
1
40
1
41
1
41
1
41
1
41
1
10
19.255743637066942
20
34.692259216090932
30
0
10
19.262702514630412
20
35.365584986588253
30
0
10
19.979357535344221
20
36.309183731219065
30
0
10
20.753491969090557
20
36.664301408430823
30
0
0
SPLINE
5
116
100
AcDbEntity
8
0
100
AcDbSpline
70
4
71
3
72
8
73
4
74
0
42
0.000000001
43
0.0000000001
44
0.0000000001
40
0
40
0
40
0
40
0
40
1
40
1
40
1
40
1
41
1
41
1
41
1
41
1
10
20.753491969090557
20
36.664301408430823
30
0
10
21.379147457104782
20
36.951306146523251
30
0
10
22.594267691594222
20
36.940393476864585
30
0
10
23.253799382191755
20
36.641845929524195
30
0
0
SPLINE
5
117
100
AcDbEntity
8
0
100
AcDbSpline
70
4
71
3
72
8
73
4
74
0
42
0.000000001
43
0.0000000001
44
0.0000000001
40
0
40
0
40
0
40
0
40
1
40
1
40
1
40
1
41
1
41
1
41
1
41
1
10
16.516570716839887
20
36.709937885185965
30
0
10
17.17575904176817
20
36.47496512736965
30
0
10
17.71919498441801
20
35.972614158770341
30
0
10
18.086489425641155
20
35.258714965483435
30
0
0
SPLINE
5
118
100
AcDbEntity
8
0
100
AcDbSpline
70
4
71
3
72
8
73
4
74
0
42
0.000000001
43
0.0000000001
44
0.0000000001
40
0
40
0
40
0
40
0
40
1
40
1
40
1
40
1
41
1
41
1
41
1
41
1
10
18.086489425641155
20
35.258714965483435
30
0
10
18.388958971959212
20
34.670811579009786
30
0
10
18.419747426968669
20
34.512141667386786
30
0
10
18.418618135434244
20
33.547195433995022
30
0
0
SPLINE
5
119
100
AcDbEntity
8
0
100
AcDbSpline
70
4
71
3
72
8
73
4
74
0
42
0.000000001
43
0.0000000001
44
0.0000000001
40
0
40
0
40
0
40
0
40
1
40
1
40
1
40
1
41
1
41
1
41
1
41
1
10
18.418618135434244
20
33.547195433995022
30
0
10
18.417109869938947
20
32.260273304960023
30
0
10
18.154201135617356
20
31.56120591892887
30
0
10
17.415697884541608
20
30.880477438947448
30
0
0
SPLINE
5
120
100
AcDbEntity
8
0
100
AcDbSpline
70
4
71
3
72
8
73
4
74
0
42
0.000000001
43
0.0000000001
44
0.0000000001
40
0
40
0
40
0
40
0
40
1
40
1
40
1
40
1
41
1
41
1
41
1
41
1
10
17.415697884541608
20
30.880477438947448
30
0
10
16.601104801159956
20
30.12960928808738
30
0
10
15.116503559094525
20
29.88776516326357
30
0
10
14.069848695736979
20
30.335431135153662
30
0
0
SPLINE
5
121
100
AcDbEntity
8
0
100
AcDbSpline
70
4
71
3
72
8
73
4
74
0
42
0.000000001
43
0.0000000001
44
0.0000000001
40
0
40
0
40
0
40
0
40
1
40
1
40
1
40
1
41
1
41
1
41
1
41
1
10
14.069848695736979
20
30.335431135153662
30
0
10
13.496097379666425
20
30.58082988948215
30
0
10
12.86681238935576
20
31.167152323445571
30
0
10
12.585074499112228
20
31.718829042157424
30
0
0
SPLINE
5
122
100
AcDbEntity
8
0
100
AcDbSpline
70
4
71
3
72
8
73
4
74
0
42
0.000000001
43
0.0000000001
44
0.0000000001
40
0
40
0
40
0
40
0
40
1
40
1
40
1
40
1
41
1
41
1
41
1
41
1
10
12.585074499112228
20
31.718829042157424
30
0
10
12.339285722714521
20
32.200118183156739
30
0
10
12.308031816464524
20
32.399466434857146
30
0
10
12.308382812481975
20
33.483775794884451
30
0
0
SPLINE
5
123
100
AcDbEntity
8
0
100
AcDbSpline
70
4
71
3
72
8
73
4
74
0
42
0.000000001
43
0.0000000001
44
0.0000000001
40
0
40
0
40
0
40
0
40
1
40
1
40
1
40
1
41
1
41
1
41
1
41
1
10
12.308382812481975
20
33.483775794884451
30
0
10
12.308718547803021
20
34.596372445365674
30
0
10
12.335694372159098
20
34.757244984170683
30
0
10
12.608514928799721
20
35.275081426522028
30
0
0
SPLINE
5
124
100
AcDbEntity
8
0
100
AcDbSpline
70
4
71
3
72
8
73
4
74
0
42
0.000000001
43
0.0000000001
44
0.0000000001
40
0
40
0
40
0
40
0
40
1
40
1
40
1
40
1
41
1
41
1
41
1
41
1
10
12.608514928799721
20
35.275081426522028
30
0
10
12.944016252499679
20
35.911899478098647
30
0
10
13.424377193432901
20
36.363981076857343
30
0
10
14.085989425641152
20
36.665580127617609
30
0
0
SPLINE
5
125
100
AcDbEntity
8
0
100
AcDbSpline
70
4
71
3
72
8
73
4
74
0
42
0.000000001
43
0.0000000001
44
0.0000000001
40
0
40
0
40
0
40
0
40
1
40
1
40
1
40
1
41
1
41
1
41
1
41
1
10
14.085989425641152
20
36.665580127617609
30
0
10
14.62554660795317
20
36.911539315125239
30
0
10
15.886446388226609
20
36.934550537726174
30
0
10
16.516570716839887
20
36.709937885185965
30
0
0
SPLINE
5
126
100
AcDbEntity
8
0
100
AcDbSpline
70
4
71
3
72
8
73
4
74
0
42
0.000000001
43
0.0000000001
44
0.0000000001
40
0
40
0
40
0
40
0
40
1
40
1
40
1
40
1
41
1
41
1
41
1
41
1
10
14.992469705563645
20
35.305083955666319
30
0
10
14.640293527585122
20
35.14462218393971
30
0
10
14.513823049527268
20
34.84864097704579
30
0
10
14.418972734433266
20
33.962919695278899
30
0
0
SPLINE
5
127
100
AcDbEntity
8
0
100
AcDbSpline
70
4
71
3
72
8
73
4
74
0
42
0.000000001
43
0.0000000001
44
0.0000000001
40
0
40
0
40
0
40
0
40
1
40
1
40
1
40
1
41
1
41
1
41
1
41
1
10
14.418972734433266
20
33.962919695278899
30
0
10
14.326462392788981
20
33.099061904570355
30
0
10
14.507708597165205
20
32.088933200141682
30
0
10
14.803206548672776
20
31.821512704512365
30
0
0
SPLINE
5
128
100
AcDbEntity
8
0
100
AcDbSpline
70
4
71
3
72
8
73
4
74
0
42
0.000000001
43
0.0000000001
44
0.0000000001
40
0
40
0
40
0
40
0
40
1
40
1
40
1
40
1
41
1
41
1
41
1
41
1
10
14.803206548672776
20
31.821512704512365
30
0
10
15.107952482205489
20
31.545721398970379
30
0
10
15.680304901105027
20
31.637714148661384
30
0
10
15.954442964535813
20
32.006548807462941
30
0
0
SPLINE
5
129
100
AcDbEntity
8
0
100
AcDbSpline
70
4
71
3
72
8
73
4
74
0
42
0.000000001
43
0.0000000001
44
0.0000000001
40
0
40
0
40
0
40
0
40
1
40
1
40
1
40
1
41
1
41
1
41
1
41
1
10
15.954442964535813
20
32.006548807462941
30
0
10
16.119980825406167
20
32.229265477439654
30
0
10
16.191309320431806
20
32.537265118619693
30
0
10
16.229288106900313
20
33.193359019419447
30
0
0
SPLINE
5
130
100
AcDbEntity
8
0
100
AcDbSpline
70
4
71
3
72
8
73
4
74
0
42
0.000000001
43
0.0000000001
44
0.0000000001
40
0
40
0
40
0
40
0
40
1
40
1
40
1
40
1
41
1
41
1
41
1
41
1
10
16.229288106900313
20
33.193359019419447
30
0
10
16.293998546582316
20
34.311177371522675
30
0
10
16.197723899823284
20
34.827015934368859
30
0
10
15.86167319105253
20
35.163066643139615
30
0
0
SPLINE
5
131
100
AcDbEntity
8
0
100
AcDbSpline
70
4
71
3
72
8
73
4
74
0
42
0.000000001
43
0.0000000001
44
0.0000000001
40
0
40
0
40
0
40
0
40
1
40
1
40
1
40
1
41
1
41
1
41
1
41
1
10
15.86167319105253
20
35.163066643139615
30
0
10
15.566419410687544
20
35.458321059366952
30
0
10
15.391506395321946
20
35.486898620983851
30
0
10
14.992469705563645
20
35.305083955666319
30
0
0
LWPOLYLINE
5
132
100
AcDbEntity
8
0
100
AcDbPolyline
90
24
70
1
43
0.0
10
59.480548534375295
20
30.205587963706147
10
59.480548534375295
20
33.483775476953276
10
59.480548534375295
20
36.76196287097622
10
59.091611047622422
20
36.76196287097622
10
58.702673242938381
20
36.76196287097622
10
58.702673242938381
20
35.206213718792689
10
58.702673242938381
20
33.650463294884453
10
57.369173322421176
20
33.650463294884453
10
56.035673322421175
20
33.650463294884453
10
56.035673322421175
20
35.206213400861515
10
56.035673322421175
20
36.76196287097622
10
55.646736034375294
20
36.76196287097622
10
55.257798428398239
20
36.76196287097622
10
55.257798428398239
20
33.483775476953276
10
55.257798428398239
20
30.205587963706147
10
55.646736034375301
20
30.205587963706147
10
56.035673640352357
20
30.205587963706151
10
56.035673640352357
20
31.594650370976218
10
56.03567364035235
20
32.983712976953278
10
57.369173640352351
20
32.983712976953278
10
58.702673560869556
20
32.983712976953285
10
58.702673560869556
20
31.594650370976218
10
58.702673560869556
20
30.205587963706147
10
59.091611047622422
20
30.205587963706147
0
LINE
5
133
100
AcDbEntity
8
0
100
AcDbLine
10
53.813173534375295
20
33.483775476953276
30
0
11
53.813173534375295
21
30.205587963706147
31
0
0
LINE
5
134
100
AcDbEntity
8
0
100
AcDbLine
10
53.813173534375295
20
30.205587963706147
30
0
11
52.503220153075318
21
30.205587963706147
31
0
0
SPLINE
5
135
100
AcDbEntity
8
0
100
AcDbSpline
70
4
71
3
72
8
73
4
74
0
42
0.000000001
43
0.0000000001
44
0.0000000001
40
0
40
0
40
0
40
0
40
1
40
1
40
1
40
1
41
1
41
1
41
1
41
1
10
52.503220153075318
20
30.205587963706147
30
0
10
51.363836847287281
20
30.205587963706147
30
0
10
51.129542554598906
20
30.238144791653646
30
0
10
50.703877857190236
20
30.455619213706147
30
0
0
SPLINE
5
136
100
AcDbEntity
8
0
100
AcDbSpline
70
4
71
3
72
8
73
4
74
0
42
0.000000001
43
0.0000000001
44
0.0000000001
40
0
40
0
40
0
40
0
40
1
40
1
40
1
40
1
41
1
41
1
41
1
41
1
10
50.703877857190236
20
30.455619213706147
30
0
10
49.478243002873519
20
31.081802825143825
30
0
10
49.409251301985847
20
33.052075809976351
30
0
10
50.585209410172567
20
33.844553918740047
30
0
0
SPLINE
5
137
100
AcDbEntity
8
0
100
AcDbSpline
70
4
71
3
72
8
73
4
74
0
42
0.000000001
43
0.0000000001
44
0.0000000001
40
0
40
0
40
0
40
0
40
1
40
1
40
1
40
1
41
1
41
1
41
1
41
1
10
50.585209410172567
20
33.844553918740047
30
0
10
50.891531646472082
20
34.050984723231089
30
0
10
51.108439554911712
20
34.094962870976218
30
0
10
51.820269016247849
20
34.094962870976218
30
0
0
LINE
5
138
100
AcDbEntity
8
0
100
AcDbLine
10
53.035298958283541
20
34.091038378152433
30
0
11
53.035298958283533
21
36.76196287097622
31
0
0
LINE
5
139
100
AcDbEntity
8
0
100
AcDbLine
10
53.035298958283533
20
36.76196287097622
30
0
11
53.424236246329414
21
36.76196287097622
31
0
0
LINE
5
140
100
AcDbEntity
8
0
100
AcDbLine
10
53.424236246329414
20
36.76196287097622
30
0
11
53.813173534375295
21
36.76196287097622
31
0
0
LINE
5
141
100
AcDbEntity
8
0
100
AcDbLine
10
53.813173534375295
20
36.76196287097622
30
0
11
53.813173534375295
21
33.483775476953276
31
0
0
SPLINE
5
142
100
AcDbEntity
8
0
100
AcDbSpline
70
4
71
3
72
8
73
4
74
0
42
0.000000001
43
0.0000000001
44
0.0000000001
40
0
40
0
40
0
40
0
40
1
40
1
40
1
40
1
41
1
41
1
41
1
41
1
10
51.009513998013603
20
33.209729613563312
30
0
10
50.405974438410865
20
32.734984926840553
30
0
10
50.339561159354311
20
31.842362154087315
30
0
10
50.865551582556833
20
31.27480858834673
30
0
0
SPLINE
5
143
100
AcDbEntity
8
0
100
AcDbSpline
70
4
71
3
72
8
73
4
74
0
42
0.000000001
43
0.0000000001
44
0.0000000001
40
0
40
0
40
0
40
0
40
1
40
1
40
1
40
1
41
1
41
1
41
1
41
1
10
50.865551582556833
20
31.27480858834673
30
0
10
51.116331242543325
20
31.004213390967141
30
0
10
51.203212930661302
20
30.983463135918864
30
0
10
52.08542997501479
20
30.983463135918864
30
0
0
LINE
5
144
100
AcDbEntity
8
0
100
AcDbLine
10
52.08542997501479
20
30.983463135918864
30
0
11
53.035298958283533
21
30.983463135918864
31
0
0
LINE
5
145
100
AcDbEntity
8
0
100
AcDbLine
10
53.035298958283533
20
30.983463135918864
30
0
11
53.035298958283533
21
32.205838082930342
31
0
0
LINE
5
146
100
AcDbEntity
8
0
100
AcDbLine
10
53.035298958283533
20
32.205838082930342
30
0
11
53.035298958283533
21
33.428212870976218
31
0
0
LINE
5
147
100
AcDbEntity
8
0
100
AcDbLine
10
53.035298958283533
20
33.428212870976218
30
0
11
52.161285174113381
21
33.428212870976218
31
0
0
SPLINE
5
148
100
AcDbEntity
8
0
100
AcDbSpline
70
4
71
3
72
8
73
4
74
0
42
0.000000001
43
0.0000000001
44
0.0000000001
40
0
40
0
40
0
40
0
40
1
40
1
40
1
40
1
41
1
41
1
41
1
41
1
10
52.161285174113381
20
33.428212870976218
30
0
10
51.460558505278691
20
33.428212870976218
30
0
10
51.23220189521895
20
33.384895066282041
30
0
10
51.009513998013603
20
33.209729613563312
30
0
0
LWPOLYLINE
5
149
100
AcDbEntity
8
0
100
AcDbPolyline
90
14
70
1
43
0.0
10
47.812424806099997
20
30.983462976953284
10
47.812424806099997
20
33.872713400861514
10
47.812423534375284
20
36.76196287097622
10
47.423485610467054
20
36.76196287097622
10
47.034547686558824
20
36.76196287097622
10
47.034547686558824
20
33.877386989137428
10
47.034547686558824
20
30.986870209836713
10
45.245551447471051
20
30.986870209836713
10
45.242466302853686
20
30.205587963706147
10
47.360882418614487
20
30.205587963706147
10
49.479298534375289
20
30.205587963706147
10
49.479298534375289
20
30.594525490200407
10
49.479298534375296
20
30.983462976953277
10
48.645861034375301
20
30.983462976953277
0
LWPOLYLINE
5
150
100
AcDbEntity
8
0
100
AcDbPolyline
90
18
70
1
43
0.0
10
42.256174382191759
20
30.205587963706147
10
42.256174382191759
20
33.483775794884451
10
42.256174382191759
20
36.76196287097622
10
41.256049382191762
20
36.76196287097622
10
40.255924382191765
20
36.76196287097622
10
40.255924382191765
20
35.539588082930337
10
40.255924382191765
20
34.317212659022104
10
39.144674806099992
20
34.317212659022104
10
38.033425230008227
20
34.317212659022104
10
38.033425230008227
20
33.59892410792996
10
38.033425230008227
20
32.880635556837802
10
40.249999100342393
20
32.880635556837817
10
40.268102417927842
20
31.761337870976224
10
38.872951747876272
20
31.761337870976224
10
37.477801077824694
20
31.76133787097622
10
37.477801077824694
20
30.983462976953277
10
37.477801077824694
20
30.205587963706147
10
39.866987730008233
20
30.205587963706147
0
SPLINE
5
151
100
AcDbEntity
8
0
100
AcDbSpline
70
4
71
3
72
8
73
4
74
0
42
0.000000001
43
0.0000000001
44
0.0000000001
40
0
40
0
40
0
40
0
40
1
40
1
40
1
40
1
41
1
41
1
41
1
41
1
10
37.318784621220694
20
36.575198653122676
30
0
10
37.217710485440357
20
36.311804119965323
30
0
10
35.366425230008225
20
30.321588451525461
30
0
10
35.366425230008225
20
30.257937358519325
30
0
0
SPLINE
5
152
100
AcDbEntity
8
0
100
AcDbSpline
70
4
71
3
72
8
73
4
74
0
42
0.000000001
43
0.0000000001
44
0.0000000001
40
0
40
0
40
0
40
0
40
1
40
1
40
1
40
1
41
1
41
1
41
1
41
1
10
35.366425230008225
20
30.257937358519325
30
0
10
35.366425230008225
20
30.229145352324736
30
0
10
34.876506006222826
20
30.20558832137872
30
0
10
34.277714430791001
20
30.20558832137872
30
0
0
LINE
5
153
100
AcDbEntity
8
0
100
AcDbLine
10
34.277714430791001
20
30.205588321378723
30
0
11
33.189001088124371
21
30.20558832137872
31
0
0
LINE
5
154
100
AcDbEntity
8
0
100
AcDbLine
10
33.189001088124371
20
30.20558832137872
30
0
11
32.221867170315839
21
33.308092432281271
31
0
0
SPLINE
5
155
100
AcDbEntity
8
0
100
AcDbSpline
70
4
71
3
72
8
73
4
74
0
42
0.000000001
43
0.0000000001
44
0.0000000001
40
0
40
0
40
0
40
0
40
1
40
1
40
1
40
1
41
1
41
1
41
1
41
1
10
32.221867170315839
20
33.308092432281271
30
0
10
31.689940336209396
20
35.014469427010312
30
0
10
31.224392444592578
20
36.48965354766537
30
0
10
31.187314039212325
20
36.586279190441857
30
0
0
SPLINE
5
156
100
AcDbEntity
8
0
100
AcDbSpline
70
4
71
3
72
8
73
4
74
0
42
0.000000001
43
0.0000000001
44
0.0000000001
40
0
40
0
40
0
40
0
40
1
40
1
40
1
40
1
41
1
41
1
41
1
41
1
10
31.187314039212325
20
36.586279190441857
30
0
10
31.128776551228622
20
36.738826383492245
30
0
10
31.258619643193345
20
36.76196287097622
30
0
10
32.173244048100571
20
36.76196287097622
30
0
0
LINE
5
157
100
AcDbEntity
8
0
100
AcDbLine
10
32.173244048100571
20
36.76196287097622
30
0
11
33.22658818338499
21
36.76196287097622
31
0
0
LINE
5
158
100
AcDbEntity
8
0
100
AcDbLine
10
33.22658818338499
20
36.76196287097622
30
0
11
33.388580475789169
21
36.178556620976224
31
0
0
LINE
5
159
100
AcDbEntity
8
0
100
AcDbLine
10
33.388580475789169
20
36.178556620976224
30
0
11
33.550572768193348
21
35.595150370976221
31
0
0
LINE
5
160
100
AcDbEntity
8
0
100
AcDbLine
10
33.550572768193348
20
35.595150370976221
30
0
11
34.436901298504935
21
35.563223722359432
31
0
0
LINE
5
161
100
AcDbEntity
8
0
100
AcDbLine
10
34.436901298504935
20
35.563223722359432
30
0
11
35.323229828816515
21
35.531298345467341
31
0
0
LINE
5
162
100
AcDbEntity
8
0
100
AcDbLine
10
35.323229828816515
20
35.531298345467341
30
0
11
35.517195823651413
21
36.146629972359435
31
0
0
LINE
5
163
100
AcDbEntity
8
0
100
AcDbLine
10
35.517195823651413
20
36.146629972359435
30
0
11
35.71116181848631
21
36.76196287097622
31
0
0
LINE
5
164
100
AcDbEntity
8
0
100
AcDbLine
10
35.71116181848631
20
36.76196287097622
30
0
11
36.55081042192564
21
36.76196287097622
31
0
0
SPLINE
5
165
100
AcDbEntity
8
0
100
AcDbSpline
70
4
71
3
72
8
73
4
74
0
42
0.000000001
43
0.0000000001
44
0.0000000001
40
0
40
0
40
0
40
0
40
1
40
1
40
1
40
1
41
1
41
1
41
1
41
1
10
36.550810421925647
20
36.76196287097622
30
0
10
37.291625668507677
20
36.76196287097622
30
0
10
37.382022403699018
20
36.739979201933636
30
0
10
37.318784621220694
20
36.575198653122676
30
0
0
LWPOLYLINE
5
166
100
AcDbEntity
8
0
100
AcDbPolyline
90
12
70
1
43
0.0
10
30.254674382191755
20
30.205587963706147
10
30.254674382191755
20
33.483775794884451
10
30.254674382191759
20
36.76196223511387
10
27.921049382191757
20
36.76196223511387
10
25.587424382191756
20
36.76196223511387
10
25.587424382191756
20
35.984087659022109
10
25.587424382191752
20
35.20621308293034
10
26.865362730008222
20
35.20621308293034
10
28.143301077824692
20
35.20621308293034
10
28.143301077824692
20
32.705900423964749
10
28.143301077824692
20
30.205587963706147
10
29.198987730008223
20
30.205587963706147
0
LINE
5
167
100
AcDbEntity
8
0
100
AcDbLine
10
11.030050230008221
20
33.479449387451901
30
0
11
11.030050230008221
21
30.196935128970338
31
0
0
LINE
5
168
100
AcDbEntity
8
0
100
AcDbLine
10
11.030050230008221
20
30.196935128970338
30
0
11
10.060065105420207
21
30.229042819520721
31
0
0
LINE
5
169
100
AcDbEntity
8
0
100
AcDbLine
10
10.060065105420207
20
30.229042819520721
30
0
11
9.0900799808321899
21
30.261150490200414
31
0
0
LINE
5
170
100
AcDbEntity
8
0
100
AcDbLine
10
9.0900799808321899
20
30.261150490200414
30
0
11
8.0628265495120051
21
31.913211049935114
31
0
0
LINE
5
171
100
AcDbEntity
8
0
100
AcDbLine
10
8.0628265495120051
20
31.913211049935114
30
0
11
7.0355731181918122
21
33.565271410962836
31
0
0
LINE
5
172
100
AcDbEntity
8
0
100
AcDbLine
10
7.0355731181918122
20
33.565271410962836
30
0
11
7.0603463153658836
21
31.913211049935111
31
0
0
LINE
5
173
100
AcDbEntity
8
0
100
AcDbLine
10
7.0603463153658836
20
31.913211049935111
30
0
11
7.0851195125399542
21
30.261150529941808
31
0
0
LINE
5
174
100
AcDbEntity
8
0
100
AcDbLine
10
7.0851195125399542
20
30.261150529941808
30
0
11
6.2794615669070266
21
30.228500945573941
31
0
0
LINE
5
175
100
AcDbEntity
8
0
100
AcDbLine
10
6.2794615669070266
20
30.228500945573941
30
0
11
5.4738036212740928
21
30.195851361206067
31
0
0
LINE
5
176
100
AcDbEntity
8
0
100
AcDbLine
10
5.4738036212740928
20
30.195851361206067
30
0
11
5.4738036212740848
21
33.478906996866954
31
0
0
LINE
5
177
100
AcDbEntity
8
0
100
AcDbLine
10
5.4738036212740848
20
33.478906996866954
30
0
11
5.4738036212740848
21
36.76196287097622
31
0
0
LINE
5
178
100
AcDbEntity
8
0
100
AcDbLine
10
5.4738036212740848
20
36.76196287097622
30
0
11
6.2969248905001596
21
36.76196287097622
31
0
0
LINE
5
179
100
AcDbEntity
8
0
100
AcDbLine
10
6.2969248905001596
20
36.76196287097622
30
0
11
7.1200461597262343
21
36.76196287097622
31
0
0
LINE
5
180
100
AcDbEntity
8
0
100
AcDbLine
10
7.1200461597262343
20
36.76196287097622
30
0
11
8.0609545707522354
21
35.233994544884453
31
0
0
SPLINE
5
181
100
AcDbEntity
8
0
100
AcDbSpline
70
4
71
3
72
8
73
4
74
0
42
0.000000001
43
0.0000000001
44
0.0000000001
40
0
40
0
40
0
40
0
40
1
40
1
40
1
40
1
41
1
41
1
41
1
41
1
10
8.060954570752239
20
35.233994544884453
30
0
10
8.5784498729525538
20
34.393611520430341
30
0
10
9.0956552219210618
20
33.520514013907203
30
0
10
9.2102986602602943
20
33.293777581116451
30
0
0
LINE
5
182
100
AcDbEntity
8
0
100
AcDbLine
10
9.2102986602602943
20
33.293777581116451
30
0
11
9.418739425641153
21
32.881529897233733
31
0
0
LINE
5
183
100
AcDbEntity
8
0
100
AcDbLine
10
9.418739425641153
20
32.881529897233733
30
0
11
9.3799619960604694
21
34.821745907208218
31
0
0
LINE
5
184
100
AcDbEntity
8
0
100
AcDbLine
10
9.3799619960604694
20
34.821745907208218
30
0
11
9.3411845664797752
21
36.76196287097622
31
0
0
LINE
5
185
100
AcDbEntity
8
0
100
AcDbLine
10
9.3411845664797752
20
36.76196287097622
30
0
11
10.185619941693403
21
36.76196287097622
31
0
0
LINE
5
186
100
AcDbEntity
8
0
100
AcDbLine
10
10.185619941693403
20
36.76196287097622
30
0
11
11.030055316907021
21
36.76196287097622
31
0
0
LINE
5
187
100
AcDbEntity
8
0
100
AcDbLine
10
11.030055316907021
20
36.76196287097622
30
0
11
11.030050230008221
21
33.479449387451901
31
0
0
LINE
5
188
100
AcDbEntity
8
0
100
AcDbLine
10
51.820269016247849
20
34.094962870976218
30
0
11
53.035298958283541
21
34.091038378152433
31
0
0
LWPOLYLINE
5
189
100
AcDbEntity
8
0
100
AcDbPolyline
90
3
70
1
43
0.0
10
34.923290648761267
20
34.067890680603632
10
34.499999228864908
20
32.399999275803566
10
33.924442026120289
20
34.067182044884454
0
ENDSEC
0
SECTION
2
OBJECTS
0
DICTIONARY
5
C
100
AcDbDictionary
3
ACAD_GROUP
350
D
3
ACAD_MLINESTYLE
350
17
0
DICTIONARY
5
D
100
AcDbDictionary
0
DICTIONARY
5
1A
330
C
100
AcDbDictionary
0
DICTIONARY
5
17
100
AcDbDictionary
0
ENDSEC
0
EOF
